<?xml version="1.0" encoding="UTF-8" standalone="no"?>
<!DOCTYPE svg PUBLIC "-//W3C//DTD SVG 1.1//EN"
 "http://www.w3.org/Graphics/SVG/1.1/DTD/svg11.dtd">
<!-- Generated by graphviz version 12.2.1 (0)
 -->
<!-- Title: main Pages: 1 -->
<svg width="208pt" height="104pt"
 viewBox="0.00 0.00 208.00 104.00" xmlns="http://www.w3.org/2000/svg" xmlns:xlink="http://www.w3.org/1999/xlink">

<svg id="main" version="1.1" xmlns="http://www.w3.org/2000/svg" xmlns:xlink="http://www.w3.org/1999/xlink" xml:space="preserve">

<style type="text/css"><![CDATA[
.node, .edge {opacity: 0.7;}
.node.selected, .edge.selected {opacity: 1;}
.edge:hover path { stroke: red; }
.edge:hover polygon { stroke: red; fill: red; }
]]></style>
<script type="application/ecmascript" xlink:href="svg.min.js"/>
<svg id="graph" class="graph">
<g id="graph0" class="graph" transform="scale(1 1) rotate(0) translate(4 100)">
<title>main</title>
<!-- Node1 -->
<g id="Node000001" class="node">
<title>Node1</title>
<g id="a_Node000001"><a xlink:title=" ">
<polygon fill="#999999" stroke="#666666" points="37,-58 0,-58 0,-38 37,-38 37,-58"/>
<text text-anchor="middle" x="18.5" y="-44.5" font-family="Helvetica,sans-Serif" font-size="10.00">main</text>
</a>
</g>
</g>
<!-- Node2 -->
<g id="Node000002" class="node">
<title>Node2</title>
<g id="a_Node000002"><a xlink:href="class_circle.html#ad090f2d9e502207c5724f5d638892056" target="_top" xlink:title=" ">
<polygon fill="white" stroke="#666666" points="189.12,-96 83.88,-96 83.88,-76 189.12,-76 189.12,-96"/>
<text text-anchor="middle" x="136.5" y="-82.5" font-family="Helvetica,sans-Serif" font-size="10.00">Circle::computeArea</text>
</a>
</g>
</g>
<!-- Node1&#45;&gt;Node2 -->
<g id="edge1_Node000001_Node000002" class="edge">
<title>Node1&#45;&gt;Node2</title>
<g id="a_edge1_Node000001_Node000002"><a xlink:title=" ">
<path fill="none" stroke="#63b8ff" d="M37.26,-54.54C47.64,-58.3 61.02,-63.05 73,-67 78.32,-68.75 83.91,-70.53 89.47,-72.27"/>
<polygon fill="#63b8ff" stroke="#63b8ff" points="88.01,-75.48 98.6,-75.09 90.07,-68.79 88.01,-75.48"/>
</a>
</g>
</g>
<!-- Node3 -->
<g id="Node000003" class="node">
<title>Node3</title>
<g id="a_Node000003"><a xlink:href="class_circle.html#a4f7baaea65e87c67bdf309a97802a6e0" target="_top" xlink:title=" ">
<polygon fill="white" stroke="#666666" points="200,-58 73,-58 73,-38 200,-38 200,-58"/>
<text text-anchor="middle" x="136.5" y="-44.5" font-family="Helvetica,sans-Serif" font-size="10.00">Circle::computePerimeter</text>
</a>
</g>
</g>
<!-- Node1&#45;&gt;Node3 -->
<g id="edge2_Node000001_Node000003" class="edge">
<title>Node1&#45;&gt;Node3</title>
<g id="a_edge2_Node000001_Node000003"><a xlink:title=" ">
<path fill="none" stroke="#63b8ff" d="M37.37,-48C44.16,-48 52.4,-48 61.17,-48"/>
<polygon fill="#63b8ff" stroke="#63b8ff" points="61,-51.5 71,-48 61,-44.5 61,-51.5"/>
</a>
</g>
</g>
<!-- Node4 -->
<g id="Node000004" class="node">
<title>Node4</title>
<g id="a_Node000004"><a xlink:href="class_circle.html#aef02eb9db5de7d5a0859f6e84aa97074" target="_top" xlink:title=" ">
<polygon fill="white" stroke="#666666" points="182.38,-20 90.62,-20 90.62,0 182.38,0 182.38,-20"/>
<text text-anchor="middle" x="136.5" y="-6.5" font-family="Helvetica,sans-Serif" font-size="10.00">Circle::setRadius</text>
</a>
</g>
</g>
<!-- Node1&#45;&gt;Node4 -->
<g id="edge3_Node000001_Node000004" class="edge">
<title>Node1&#45;&gt;Node4</title>
<g id="a_edge3_Node000001_Node000004"><a xlink:title=" ">
<path fill="none" stroke="#63b8ff" d="M37.26,-41.46C47.64,-37.7 61.02,-32.95 73,-29 78.32,-27.25 83.91,-25.47 89.47,-23.73"/>
<polygon fill="#63b8ff" stroke="#63b8ff" points="90.07,-27.21 98.6,-20.91 88.01,-20.52 90.07,-27.21"/>
</a>
</g>
</g>
</g>
</svg>
</svg>

<style type='text/css'>
<![CDATA[
[data-mouse-over-selected='false'] { opacity: 0.7; }
[data-mouse-over-selected='true']  { opacity: 1.0; }
]]>
</style>
<script type="application/ecmascript"><![CDATA[
document.addEventListener('DOMContentLoaded', (event) => {
  highlightEdges();
  highlightAdjacentNodes();
});
]]></script>
</svg>
